<?xml version="1.0" encoding="utf-8"?>
<!-- Generator: Adobe Illustrator 26.0.1, SVG Export Plug-In . SVG Version: 6.00 Build 0)  -->
<svg version="1.1" id="Layer_1" xmlns="http://www.w3.org/2000/svg" xmlns:xlink="http://www.w3.org/1999/xlink" x="0px" y="0px"
	 viewBox="0 0 2109.5 810" style="enable-background:new 0 0 2109.5 810;" xml:space="preserve">
<style type="text/css">
	.st0{fill:#252422;}
	.st1{fill:#E95E28;}
</style>
<g>
	<path class="st0" d="M367.8,127.4c-92.7,26.8-152.8,69.2-178.6,126c-23,50.6-12.4,99.3-3.2,125.3c0.9,2.5,0.2,5.1-1.6,7
		c-36.1,35.6-55.9,78.8-58.9,128.7c-1.7,29.1,2.3,58.3,10,86.6c0.2,0.7-0.5,1.2-1.1,0.9l-95.9-55.3c-10.8-6.2-17.5-17.8-17.5-30.3
		V235.6c0-12.5,6.7-24.1,17.5-30.3L281.4,65c10.8-6.2,24.2-6.2,35,0l84.8,48.9c1.4,0.8,1.2,2.9-0.4,3.4
		C390.5,120.7,379.5,124.1,367.8,127.4z"/>
	<path class="st0" d="M576.9,237.4v277c0,13.6-7.3,26.2-19,33L318,685.9c-11.8,6.8-26.3,6.8-38.1,0l-31.5-18.2
		c-0.8-0.5-1.4-1.3-1.5-2.2c-9.4-59.6-10-127.7,18.7-178.6c23-40.7,63.1-65.7,119.1-74.2c6.1-0.9,11.1-5.5,12.6-11.4l24.1-95.2
		c1.3-5.1-0.1-10.5-3.8-14.4c-2.9-3.1-7-4.8-11.2-4.8c-1,0-2,0.1-3,0.3c-36.1,7.2-69.1,16.2-98.4,26.9c-2.3,0.8-4.6-1.2-4.1-3.5
		c15.1-69.8,104.9-94.8,109.2-95.9c0.3-0.1,0.6-0.2,0.9-0.3c35.6-11.9,66.4-25.1,92.4-39.6c1-0.5,2.1-0.5,3,0l51.3,29.6
		C569.7,211.2,576.9,223.8,576.9,237.4z"/>
	<path class="st1" d="M406.3,199.8C623.6,127,591.9,27.7,581.3,5.1c6.4,16.5,9.5,73.9-209.2,137.1
		C145.8,207.7,189.3,348.1,204,382.8c1,2.4,0.4,5.2-1.6,7c-171.3,153.9,66.4,415.1,66.4,415.1S118.6,440.8,379.5,398
		c1.8-0.3,3.3-1.6,3.7-3.4l21.6-85.3c0.8-3.3-2.1-6.3-5.4-5.6c-40.7,8.5-75.5,19-105.2,31.1c-5.2,2.1-10.8-1.8-10.6-7.4
		C286.4,231.6,406.3,199.8,406.3,199.8z"/>
</g>
<g>
	<path class="st0" d="M663.6,161.4h290.9v132.2H799.3v76.6h141.3v132.2H799.3v146.2H663.6L663.6,161.4L663.6,161.4z"/>
	<path class="st0" d="M964.9,648.6l123.9-487.2h184.4l123.9,487.2h-140.6l-13.9-58.5h-123.2l-13.9,58.5H964.9z M1214.8,471.8
		l-33.4-141.3L1148,471.8H1214.8z"/>
	<path class="st0" d="M1358.9,161.4h142l56.4,200.4l56.4-200.4h142l-95.4,334.1h-35.5v153.1H1489V495.5h-34.8L1358.9,161.4z"/>
	<path class="st0" d="M1928.2,512.9h141.3v135.7h-207.4c-57.1,0-100.9-27.8-100.9-85.6c0-22.3,6.3-40.4,16.7-59.2l116.2-206.7h-119
		V161.4h198.4c57.8,0,91.2,30.6,91.2,80.7c0,23-7,43.2-18.8,64L1928.2,512.9z"/>
</g>
</svg>
