<?xml version="1.0" encoding="utf-8"?>
<!-- Generator: Adobe Illustrator 26.0.1, SVG Export Plug-In . SVG Version: 6.00 Build 0)  -->
<svg version="1.1" id="Layer_1" xmlns="http://www.w3.org/2000/svg" xmlns:xlink="http://www.w3.org/1999/xlink" x="0px" y="0px"
	 viewBox="0 0 1562 810" style="enable-background:new 0 0 1562 810;" xml:space="preserve">
<style type="text/css">
	.st0{fill:#252422;}
	.st1{fill:#E95E28;}
	.st2{fill:none;stroke:#E95E28;stroke-width:6;stroke-miterlimit:10;}
</style>
<g>
	<g>
		<path class="st0" d="M367.81,127.44C275.1,154.24,215,196.63,189.17,253.46c-23.02,50.61-12.36,99.35-3.22,125.28
			c0.86,2.45,0.2,5.14-1.65,6.96c-36.11,35.59-55.89,78.8-58.89,128.68c-1.73,29.06,2.33,58.34,10.01,86.61
			c0.18,0.67-0.53,1.23-1.14,0.88l-95.86-55.32c-10.83-6.25-17.5-17.81-17.5-30.31v-280.6c0-12.5,6.67-24.06,17.5-30.31
			l243.01-140.3c10.83-6.25,24.17-6.25,35,0l84.76,48.94c1.43,0.82,1.21,2.95-0.36,3.45C390.49,120.74,379.48,124.08,367.81,127.44z
			"/>
		<path class="st0" d="M576.91,237.4v277.04c0,13.61-7.26,26.18-19.04,32.98l-239.9,138.52c-11.78,6.8-26.29,6.8-38.08,0.01
			l-31.46-18.15c-0.81-0.47-1.37-1.27-1.51-2.19c-9.37-59.6-10.01-127.74,18.71-178.57c22.98-40.7,63.06-65.68,119.12-74.23
			c6.12-0.92,11.09-5.47,12.63-11.43l24.1-95.25c1.31-5.12-0.12-10.55-3.77-14.4c-2.93-3.08-6.97-4.77-11.17-4.77
			c-1,0-2,0.08-3,0.27c-36.12,7.2-69.08,16.23-98.39,26.91c-2.29,0.83-4.6-1.17-4.08-3.55c15.15-69.81,104.93-94.77,109.18-95.89
			c0.31-0.08,0.62-0.19,0.92-0.31c35.61-11.89,66.44-25.12,92.35-39.61c0.95-0.53,2.09-0.52,3.03,0.02l51.32,29.63
			C569.65,211.23,576.91,223.8,576.91,237.4z"/>
		<path class="st1" d="M406.29,199.8c217.31-72.83,185.6-172.13,175-194.7c6.37,16.47,9.53,73.92-209.18,137.15
			c-226.33,65.42-182.84,205.82-168.07,240.54c1.03,2.42,0.4,5.22-1.55,6.97c-171.31,153.93,66.39,415.15,66.39,415.15
			S118.56,440.77,379.46,398.05c1.8-0.3,3.27-1.62,3.72-3.39l21.59-85.26c0.83-3.28-2.07-6.29-5.38-5.6
			c-40.69,8.47-75.53,18.97-105.24,31.08c-5.18,2.11-10.78-1.82-10.61-7.41C286.44,231.61,406.29,199.8,406.29,199.8z"/>
	</g>
	<g>
		<path class="st0" d="M649.81,220.68H834v83.72h-98.26v48.47h89.45v83.72h-89.45v92.53h-85.92V220.68z"/>
		<path class="st0" d="M840.61,529.12l78.43-308.44h116.77l78.43,308.44h-89.01l-8.81-37.01h-77.99l-8.81,37.01H840.61z
			 M998.79,417.2l-21.15-89.45l-21.15,89.45H998.79z"/>
		<path class="st0" d="M1090.01,220.68h89.89l35.69,126.9l35.69-126.9h89.89l-60.37,211.5h-22.47v96.94h-85.92v-96.94h-22.03
			L1090.01,220.68z"/>
		<path class="st0" d="M1450.44,443.2h89.45v85.92h-131.31c-36.13,0-63.89-17.62-63.89-54.2c0-14.1,3.97-25.56,10.58-37.45
			l73.58-130.87h-75.35v-85.92h125.58c36.57,0,57.72,19.39,57.72,51.11c0,14.54-4.41,27.32-11.9,40.54L1450.44,443.2z"/>
	</g>
	<g>
		<path class="st0" d="M696.55,599.34c-2.9-2.84-6.3-5.06-10.19-6.65c-3.89-1.59-8.11-2.38-12.66-2.38h-13.56h-3.23h-7.09v62.86
			h7.09h3.23h13.74c4.49,0,8.68-0.79,12.57-2.38c3.89-1.59,7.27-3.8,10.15-6.64c2.87-2.84,5.12-6.18,6.73-10.01
			c1.62-3.83,2.42-7.96,2.42-12.39c0-4.49-0.81-8.64-2.42-12.44C701.72,605.51,699.46,602.19,696.55,599.34z M692.42,633.2
			c-1.83,3.32-4.37,5.91-7.63,7.77c-3.26,1.86-7.05,2.78-11.36,2.78h-13.29v-44h13.29c4.25,0,8.01,0.93,11.27,2.78
			c3.26,1.86,5.82,4.43,7.68,7.72c1.86,3.29,2.78,7.09,2.78,11.4C695.16,626.03,694.25,629.88,692.42,633.2z"/>
		<path class="st0" d="M741.86,610.34c-1.74-0.78-3.68-1.17-5.84-1.17c-4.91,0-8.58,1.69-11,5.07c-0.08,0.11-0.15,0.23-0.22,0.35
			v-4.52h-9.88v43.1h9.88V629.2c0-3.71,0.9-6.43,2.69-8.17c1.8-1.74,4.07-2.6,6.82-2.6c1.26,0,2.36,0.18,3.32,0.54
			c0.96,0.36,1.83,0.96,2.6,1.8l6.47-6.65C745.21,612.38,743.59,611.12,741.86,610.34z"/>
		<rect x="751.55" y="610.07" class="st0" width="9.88" height="43.1"/>
		<path class="st0" d="M756.49,590.32c-1.68,0-3.07,0.57-4.18,1.71c-1.11,1.14-1.66,2.55-1.66,4.22c0,1.68,0.55,3.08,1.66,4.22
			c1.11,1.14,2.5,1.71,4.18,1.71c1.74,0,3.14-0.57,4.22-1.71c1.08-1.14,1.62-2.54,1.62-4.22c0-1.67-0.54-3.08-1.62-4.22
			C759.64,590.89,758.23,590.32,756.49,590.32z"/>
		<polygon class="st0" points="790.09,637.64 778.32,610.07 767.36,610.07 787.03,653.18 792.77,653.18 812.44,610.07 
			801.93,610.07 		"/>
		<rect x="818.37" y="610.07" class="st0" width="9.88" height="43.1"/>
		<path class="st0" d="M823.31,590.32c-1.68,0-3.07,0.57-4.18,1.71c-1.11,1.14-1.66,2.55-1.66,4.22c0,1.68,0.55,3.08,1.66,4.22
			c1.11,1.14,2.5,1.71,4.18,1.71c1.74,0,3.14-0.57,4.22-1.71c1.08-1.14,1.62-2.54,1.62-4.22c0-1.67-0.54-3.08-1.62-4.22
			C826.45,590.89,825.04,590.32,823.31,590.32z"/>
		<path class="st0" d="M870.63,611.65c-2.51-1.65-5.39-2.47-8.62-2.47c-3.17,0-6.03,0.73-8.58,2.2c-1.67,0.96-3.07,2.18-4.27,3.6
			v-4.91h-9.88v43.1h9.88V628.3c0-1.92,0.42-3.62,1.26-5.12c0.84-1.5,2.01-2.66,3.5-3.5c1.5-0.84,3.2-1.26,5.12-1.26
			c2.87,0,5.22,0.93,7.05,2.78c1.83,1.86,2.74,4.22,2.74,7.09v24.87h9.88v-27.03c0-2.81-0.72-5.52-2.15-8.13
			S873.14,613.29,870.63,611.65z"/>
		<path class="st0" d="M919.57,614.66c-1.2-1.36-2.62-2.51-4.31-3.41c-2.57-1.38-5.57-2.07-8.98-2.07c-3.83,0-7.29,0.94-10.37,2.83
			c-3.08,1.89-5.51,4.45-7.27,7.68c-1.77,3.23-2.65,6.89-2.65,10.96c0,4.07,0.88,7.75,2.65,11.05c1.77,3.29,4.19,5.88,7.27,7.77
			c3.08,1.89,6.54,2.83,10.37,2.83c3.35,0,6.31-0.69,8.89-2.07c1.72-0.92,3.17-2.11,4.4-3.51v4.68c0,3.47-1.14,6.21-3.41,8.22
			c-2.28,2.01-5.36,3.01-9.25,3.01c-3.11,0-5.78-0.54-7.99-1.62c-2.22-1.08-4.19-2.69-5.93-4.85l-6.47,6.47
			c2.09,2.99,4.85,5.31,8.26,6.96c3.41,1.65,7.39,2.47,11.94,2.47c4.49,0,8.44-0.87,11.85-2.6c3.41-1.74,6.08-4.15,7.99-7.23
			c1.92-3.08,2.87-6.69,2.87-10.82v-41.31h-9.88V614.66z M914.54,641.42c-1.8,1.02-3.89,1.53-6.29,1.53c-2.39,0-4.51-0.51-6.33-1.53
			s-3.25-2.45-4.27-4.31c-1.02-1.86-1.53-3.98-1.53-6.38c0-2.45,0.51-4.59,1.53-6.42c1.02-1.83,2.44-3.25,4.27-4.27
			c1.83-1.02,3.94-1.53,6.33-1.53c2.39,0,4.49,0.51,6.29,1.53c1.8,1.02,3.19,2.44,4.18,4.27c0.99,1.83,1.48,3.97,1.48,6.42
			c0,2.46-0.49,4.59-1.48,6.42C917.73,638.98,916.34,640.4,914.54,641.42z"/>
		<path class="st0" d="M1006.45,599.34c-2.9-2.84-6.3-5.06-10.19-6.65c-3.89-1.59-8.11-2.38-12.66-2.38h-13.56h-3.23h-7.09v62.86
			h7.09h3.23h13.74c4.49,0,8.68-0.79,12.57-2.38c3.89-1.59,7.27-3.8,10.15-6.64c2.87-2.84,5.12-6.18,6.73-10.01
			c1.62-3.83,2.42-7.96,2.42-12.39c0-4.49-0.81-8.64-2.42-12.44C1011.61,605.51,1009.35,602.19,1006.45,599.34z M1002.32,633.2
			c-1.83,3.32-4.37,5.91-7.63,7.77c-3.26,1.86-7.05,2.78-11.36,2.78h-13.29v-44h13.29c4.25,0,8.01,0.93,11.27,2.78
			c3.26,1.86,5.82,4.43,7.68,7.72c1.86,3.29,2.78,7.09,2.78,11.4C1005.06,626.03,1004.15,629.88,1002.32,633.2z"/>
		<rect x="1024.9" y="610.07" class="st0" width="9.88" height="43.1"/>
		<path class="st0" d="M1029.84,590.32c-1.68,0-3.07,0.57-4.18,1.71c-1.11,1.14-1.66,2.55-1.66,4.22c0,1.68,0.55,3.08,1.66,4.22
			c1.11,1.14,2.5,1.71,4.18,1.71c1.74,0,3.14-0.57,4.22-1.71c1.08-1.14,1.62-2.54,1.62-4.22c0-1.67-0.54-3.08-1.62-4.22
			C1032.99,590.89,1031.58,590.32,1029.84,590.32z"/>
		<path class="st0" d="M1076.63,614.66c-1.2-1.36-2.62-2.51-4.31-3.41c-2.57-1.38-5.57-2.07-8.98-2.07c-3.83,0-7.29,0.94-10.37,2.83
			c-3.08,1.89-5.51,4.45-7.27,7.68c-1.77,3.23-2.65,6.89-2.65,10.96c0,4.07,0.88,7.75,2.65,11.05c1.77,3.29,4.19,5.88,7.27,7.77
			c3.08,1.89,6.54,2.83,10.37,2.83c3.35,0,6.31-0.69,8.89-2.07c1.72-0.92,3.17-2.11,4.4-3.51v4.68c0,3.47-1.14,6.21-3.41,8.22
			c-2.28,2.01-5.36,3.01-9.25,3.01c-3.11,0-5.78-0.54-7.99-1.62c-2.22-1.08-4.19-2.69-5.93-4.85l-6.47,6.47
			c2.09,2.99,4.85,5.31,8.26,6.96c3.41,1.65,7.39,2.47,11.94,2.47c4.49,0,8.44-0.87,11.85-2.6c3.41-1.74,6.08-4.15,7.99-7.23
			c1.92-3.08,2.87-6.69,2.87-10.82v-41.31h-9.88V614.66z M1071.6,641.42c-1.8,1.02-3.89,1.53-6.29,1.53c-2.39,0-4.51-0.51-6.33-1.53
			s-3.25-2.45-4.27-4.31c-1.02-1.86-1.53-3.98-1.53-6.38c0-2.45,0.51-4.59,1.53-6.42c1.02-1.83,2.44-3.25,4.27-4.27
			c1.83-1.02,3.94-1.53,6.33-1.53c2.39,0,4.49,0.51,6.29,1.53c1.8,1.02,3.19,2.44,4.18,4.27c0.99,1.83,1.48,3.97,1.48,6.42
			c0,2.46-0.49,4.59-1.48,6.42C1074.79,638.98,1073.4,640.4,1071.6,641.42z"/>
		<path class="st0" d="M1102.49,590.32c-1.68,0-3.07,0.57-4.18,1.71c-1.11,1.14-1.66,2.55-1.66,4.22c0,1.68,0.55,3.08,1.66,4.22
			c1.11,1.14,2.5,1.71,4.18,1.71c1.74,0,3.14-0.57,4.22-1.71c1.08-1.14,1.62-2.54,1.62-4.22c0-1.67-0.54-3.08-1.62-4.22
			C1105.63,590.89,1104.23,590.32,1102.49,590.32z"/>
		<rect x="1097.55" y="610.07" class="st0" width="9.88" height="43.1"/>
		<polygon class="st0" points="1134.91,592.12 1125.03,592.12 1125.03,610.07 1114.7,610.07 1114.7,619.05 1125.03,619.05 
			1125.03,653.18 1134.91,653.18 1134.91,619.05 1145.24,619.05 1145.24,610.07 1134.91,610.07 		"/>
		<path class="st0" d="M1182.41,614.91c-1.25-1.44-2.71-2.66-4.45-3.62c-2.55-1.41-5.46-2.11-8.76-2.11c-3.89,0-7.41,1-10.55,3.01
			c-3.14,2.01-5.63,4.7-7.45,8.08c-1.83,3.38-2.74,7.2-2.74,11.45c0,4.19,0.91,7.98,2.74,11.36c1.83,3.38,4.31,6.06,7.45,8.04
			c3.14,1.98,6.66,2.96,10.55,2.96c3.29,0,6.23-0.7,8.8-2.11c1.72-0.94,3.17-2.14,4.4-3.55v4.76h9.88v-43.1h-9.88V614.91z
			 M1179.67,641.06c-2.24,2.46-5.19,3.68-8.84,3.68c-2.4,0-4.51-0.55-6.33-1.66c-1.83-1.11-3.26-2.65-4.31-4.62
			c-1.05-1.98-1.57-4.25-1.57-6.82c0-2.57,0.52-4.85,1.57-6.83c1.05-1.98,2.48-3.52,4.31-4.62c1.83-1.11,3.94-1.66,6.33-1.66
			c2.45,0,4.59,0.55,6.42,1.66c1.83,1.11,3.25,2.65,4.27,4.62c1.02,1.98,1.53,4.25,1.53,6.83
			C1183.04,635.46,1181.92,638.6,1179.67,641.06z"/>
		<rect x="1203.25" y="588.52" class="st0" width="9.88" height="64.66"/>
		<path class="st0" d="M1277.11,621.97c-1.77-1.41-3.71-2.56-5.84-3.46c-2.13-0.9-4.25-1.71-6.38-2.42
			c-2.12-0.72-4.07-1.48-5.84-2.29c-1.77-0.81-3.19-1.8-4.27-2.96c-1.08-1.17-1.62-2.71-1.62-4.62c0-2.27,0.88-4.04,2.65-5.3
			c1.76-1.26,4.2-1.89,7.32-1.89c2.51,0,4.74,0.49,6.69,1.48c1.95,0.99,3.82,2.5,5.61,4.54l7-7.01c-2.04-2.51-4.68-4.58-7.95-6.2
			c-3.26-1.62-6.96-2.42-11.09-2.42c-3.83,0-7.3,0.69-10.42,2.06c-3.11,1.38-5.58,3.37-7.41,5.97c-1.83,2.6-2.74,5.76-2.74,9.47
			c0,3.23,0.54,5.9,1.62,7.99c1.08,2.1,2.5,3.8,4.27,5.12c1.77,1.32,3.71,2.41,5.84,3.28c2.12,0.87,4.25,1.65,6.38,2.34
			c2.12,0.69,4.07,1.47,5.84,2.33c1.77,0.87,3.19,1.96,4.27,3.28c1.08,1.32,1.62,3.02,1.62,5.12c0,2.51-1.03,4.49-3.1,5.93
			c-2.07,1.44-4.84,2.16-8.31,2.16c-3.71,0-6.77-0.7-9.16-2.11c-2.4-1.41-4.46-3.37-6.2-5.88l-7,7c2.75,3.47,5.87,6.11,9.34,7.9
			c3.47,1.8,7.69,2.69,12.66,2.69c6.76,0,12.14-1.65,16.12-4.94c3.98-3.29,5.97-7.75,5.97-13.38c0-3.35-0.54-6.14-1.62-8.35
			C1280.3,625.19,1278.87,623.38,1277.11,621.97z"/>
		<path class="st0" d="M1318.55,634.68c0,3.17-0.76,5.61-2.29,7.32c-1.53,1.71-3.73,2.56-6.6,2.56c-1.86,0-3.46-0.39-4.8-1.17
			c-1.35-0.78-2.37-1.9-3.05-3.37c-0.69-1.47-1.03-3.25-1.03-5.34v-24.61h-9.88v25.05c0,3.71,0.79,6.99,2.38,9.83
			c1.59,2.84,3.8,5.07,6.65,6.69c2.84,1.62,6.09,2.42,9.74,2.42c3.71,0,6.97-0.79,9.79-2.38c2.81-1.59,5.01-3.8,6.6-6.64
			c1.59-2.84,2.38-6.15,2.38-9.92v-25.05h-9.88V634.68z"/>
		<path class="st0" d="M1351.73,620.36c1.89-1.11,4.06-1.66,6.51-1.66c2.09,0,4.03,0.37,5.79,1.12c1.77,0.75,3.28,1.87,4.54,3.37
			l6.47-6.56c-2.04-2.39-4.51-4.23-7.41-5.52c-2.91-1.29-6.03-1.93-9.38-1.93c-4.25,0-8.1,0.99-11.54,2.96
			c-3.44,1.98-6.15,4.66-8.13,8.04c-1.98,3.38-2.96,7.2-2.96,11.45c0,4.19,0.99,7.99,2.96,11.4c1.98,3.41,4.68,6.11,8.13,8.08
			c3.44,1.98,7.29,2.96,11.54,2.96c3.35,0,6.48-0.64,9.38-1.93c2.9-1.29,5.37-3.13,7.41-5.52l-6.47-6.56
			c-1.26,1.5-2.77,2.62-4.54,3.37c-1.77,0.75-3.7,1.12-5.79,1.12c-2.46,0-4.62-0.55-6.51-1.66c-1.89-1.11-3.35-2.63-4.4-4.58
			c-1.05-1.95-1.57-4.18-1.57-6.69c0-2.57,0.52-4.82,1.57-6.74C1348.38,622.98,1349.85,621.47,1351.73,620.36z"/>
		<path class="st0" d="M1394.57,620.36c1.89-1.11,4.06-1.66,6.51-1.66c2.09,0,4.03,0.37,5.79,1.12c1.77,0.75,3.28,1.87,4.54,3.37
			l6.47-6.56c-2.04-2.39-4.51-4.23-7.41-5.52c-2.91-1.29-6.03-1.93-9.38-1.93c-4.25,0-8.1,0.99-11.54,2.96
			c-3.44,1.98-6.15,4.66-8.13,8.04c-1.98,3.38-2.96,7.2-2.96,11.45c0,4.19,0.99,7.99,2.96,11.4c1.98,3.41,4.68,6.11,8.13,8.08
			c3.44,1.98,7.29,2.96,11.54,2.96c3.35,0,6.48-0.64,9.38-1.93c2.9-1.29,5.37-3.13,7.41-5.52l-6.47-6.56
			c-1.26,1.5-2.77,2.62-4.54,3.37c-1.77,0.75-3.7,1.12-5.79,1.12c-2.46,0-4.62-0.55-6.51-1.66c-1.89-1.11-3.35-2.63-4.4-4.58
			c-1.05-1.95-1.57-4.18-1.57-6.69c0-2.57,0.52-4.82,1.57-6.74C1391.21,622.98,1392.68,621.47,1394.57,620.36z"/>
		<path class="st0" d="M1454.19,611.96c-3.08-1.86-6.63-2.78-10.64-2.78c-4.13,0-7.89,0.99-11.27,2.96
			c-3.38,1.98-6.06,4.66-8.04,8.04c-1.98,3.38-2.96,7.2-2.96,11.45c0,4.25,1,8.08,3.01,11.49c2.01,3.41,4.73,6.09,8.17,8.04
			c3.44,1.95,7.32,2.92,11.63,2.92c3.35,0,6.52-0.63,9.52-1.89c2.99-1.26,5.54-3.11,7.63-5.57l-6.29-6.38
			c-1.32,1.5-2.92,2.64-4.8,3.41c-1.89,0.78-3.94,1.17-6.15,1.17c-2.58,0-4.85-0.55-6.83-1.66c-1.98-1.11-3.5-2.68-4.58-4.71
			c-0.51-0.97-0.9-2.02-1.17-3.14h32.15c0.18-0.9,0.31-1.72,0.4-2.47c0.09-0.75,0.14-1.48,0.14-2.2c0-4.13-0.88-7.81-2.65-11.05
			C1459.7,616.36,1457.28,613.82,1454.19,611.96z M1432.51,624.4c1.02-1.94,2.45-3.46,4.31-4.54c1.86-1.08,4.04-1.62,6.56-1.62
			c2.39,0,4.41,0.48,6.06,1.44c1.65,0.96,2.92,2.34,3.82,4.13c0.5,1,0.87,2.15,1.13,3.41h-22.91
			C1431.72,626.21,1432.06,625.26,1432.51,624.4z"/>
		<path class="st0" d="M1481.72,619.05c1.08-0.6,2.6-0.9,4.58-0.9c2.09,0,3.95,0.39,5.57,1.17c1.62,0.78,3.05,1.95,4.31,3.5
			l6.29-6.29c-1.8-2.45-4.03-4.29-6.69-5.52c-2.66-1.23-5.73-1.84-9.2-1.84c-3.29,0-6.12,0.54-8.49,1.62
			c-2.37,1.08-4.19,2.6-5.48,4.58c-1.29,1.98-1.93,4.34-1.93,7.09c0,2.57,0.54,4.67,1.62,6.29c1.08,1.62,2.47,2.89,4.18,3.82
			c1.71,0.93,3.5,1.66,5.39,2.2c1.89,0.54,3.68,1.06,5.39,1.57c1.71,0.51,3.1,1.12,4.18,1.84c1.08,0.72,1.62,1.74,1.62,3.05
			c0,1.26-0.57,2.22-1.71,2.87c-1.14,0.66-2.81,0.99-5.03,0.99c-2.46,0-4.66-0.43-6.6-1.3c-1.95-0.87-3.67-2.17-5.16-3.91
			l-6.29,6.29c1.38,1.68,2.99,3.1,4.85,4.27c1.86,1.17,3.89,2.07,6.11,2.69c2.21,0.63,4.52,0.94,6.92,0.94
			c5.03,0,9.01-1.23,11.94-3.68c2.93-2.45,4.4-5.78,4.4-9.97c0-2.63-0.54-4.77-1.62-6.42c-1.08-1.65-2.47-2.96-4.18-3.95
			s-3.5-1.77-5.39-2.33c-1.89-0.57-3.68-1.09-5.39-1.57c-1.71-0.48-3.1-1.05-4.18-1.71c-1.08-0.66-1.62-1.59-1.62-2.78
			C1480.1,620.52,1480.64,619.65,1481.72,619.05z"/>
		<path class="st0" d="M1535.28,630.06c-1.71-0.99-3.5-1.77-5.39-2.33c-1.89-0.57-3.68-1.09-5.39-1.57
			c-1.71-0.48-3.1-1.05-4.18-1.71c-1.08-0.66-1.62-1.59-1.62-2.78c0-1.14,0.54-2.01,1.62-2.6c1.08-0.6,2.6-0.9,4.58-0.9
			c2.09,0,3.95,0.39,5.57,1.17c1.62,0.78,3.05,1.95,4.31,3.5l6.29-6.29c-1.8-2.45-4.03-4.29-6.69-5.52
			c-2.66-1.23-5.73-1.84-9.2-1.84c-3.29,0-6.12,0.54-8.49,1.62c-2.37,1.08-4.19,2.6-5.48,4.58c-1.29,1.98-1.93,4.34-1.93,7.09
			c0,2.57,0.54,4.67,1.62,6.29c1.08,1.62,2.47,2.89,4.18,3.82c1.71,0.93,3.5,1.66,5.39,2.2c1.89,0.54,3.68,1.06,5.39,1.57
			c1.71,0.51,3.1,1.12,4.18,1.84c1.08,0.72,1.62,1.74,1.62,3.05c0,1.26-0.57,2.22-1.71,2.87c-1.14,0.66-2.81,0.99-5.03,0.99
			c-2.46,0-4.66-0.43-6.6-1.3c-1.95-0.87-3.67-2.17-5.16-3.91l-6.29,6.29c1.38,1.68,2.99,3.1,4.85,4.27
			c1.86,1.17,3.89,2.07,6.11,2.69c2.21,0.63,4.52,0.94,6.92,0.94c5.03,0,9.01-1.23,11.94-3.68c2.93-2.45,4.4-5.78,4.4-9.97
			c0-2.63-0.54-4.77-1.62-6.42C1538.38,632.36,1536.99,631.04,1535.28,630.06z"/>
	</g>
	<line class="st2" x1="649.81" y1="559.34" x2="1540.08" y2="559.34"/>
</g>
</svg>
