<?xml version="1.0" encoding="utf-8"?>
<!-- Generator: Adobe Illustrator 26.0.1, SVG Export Plug-In . SVG Version: 6.00 Build 0)  -->
<svg version="1.1" id="Layer_1" xmlns="http://www.w3.org/2000/svg" xmlns:xlink="http://www.w3.org/1999/xlink" x="0px" y="0px"
	 viewBox="0 0 1000 1000" style="enable-background:new 0 0 1000 1000;" xml:space="preserve">
<style type="text/css">
	.st0{fill:#FFFFFF;}
	.st1{fill:#E95E28;}
	.st2{fill:#252422;}
</style>
<g>
	<path class="st0" d="M802.28,1.18L802.28,1.18c0,0,7.37,31.58-0.83,51.1c-8.75,20.85-45.75,58.36-172.09,101.77L507.92,83.93
		c-8.41-4.86-18-7.43-27.71-7.43c-9.71,0-19.3,2.57-27.71,7.42L162.73,251.22c-17.09,9.87-27.71,28.26-27.71,47.99V633.8
		c0,19.74,10.62,38.13,27.72,48l135.06,77.96c0.18,0.54,0.35,1.07,0.54,1.6c12.56,36.45,30.79,74.64,54.18,113.5
		c24.47,40.66,49.2,73.21,64.95,92.62c10.17,12.54,22.52,23.13,36.45,31.28l4.14,2.42l-0.21-5.62c-0.53-14.27-3.22-28.38-8-41.84
		c-8.81-24.81-23.81-71.4-33.6-125.53l36.25,20.91c8.41,4.85,17.99,7.42,27.7,7.42c9.72,0,19.3-2.57,27.71-7.43L797.64,681.8
		c17.09-9.87,27.71-28.26,27.71-47.99V299.22c0-19.73-10.62-38.12-27.71-47.99l-62.69-36.2c47.55-28.75,79.27-61.33,94.71-97.44
		c6.74-15.77,9.63-30.61,10.25-43.89C841.26,44.56,826.82,16.95,802.28,1.18z"/>
	<path class="st1" d="M608.21,256.5C867.33,169.65,829.52,51.25,816.87,24.34c7.6,19.63,11.37,88.15-249.43,163.53
		c-282.02,81.52-212.69,260.66-198.27,291.62c-211.9,183.05,75.18,498.53,75.18,498.53S263.77,540.54,579.77,492.33l28.75-113.57
		c-58.06,11.56-106.4,26.5-146.41,44.03C453.65,297.53,608.21,256.5,608.21,256.5z"/>
	<path class="st2" d="M562.34,170.22c-110.55,31.95-182.21,82.5-213.01,150.26c-28.92,63.58-13.27,124.68-2.11,154.11
		c-45.4,43.11-70.24,95.85-73.91,157c-2.11,35.39,2.98,71.07,12.53,105.45l-116.25-67.1c-12.92-7.45-20.87-21.23-20.87-36.15V299.22
		c0-14.91,7.95-28.69,20.87-36.14L459.34,95.78c12.91-7.46,28.82-7.46,41.74,0l105.47,60.9
		C592.82,161.18,578.08,165.68,562.34,170.22z"/>
	<path class="st2" d="M811.66,299.22v334.59c0,14.91-7.95,28.69-20.87,36.14L501.07,837.24c-12.91,7.45-28.81,7.46-41.73,0.01
		l-40.88-23.59C407.03,742.19,405.97,660.1,440.5,599c27.41-48.52,75.2-78.32,142.04-88.51c7.3-1.1,13.22-6.52,15.06-13.63
		l28.74-113.58c1.56-6.11-0.14-12.58-4.5-17.17c-3.49-3.67-8.31-5.69-13.31-5.69c-1.19,0-2.39,0.09-3.58,0.32
		c-45.59,9.09-86.95,20.61-123.4,34.34c13.73-88.19,126.2-119.45,131.39-120.83c0.37-0.09,0.73-0.23,1.1-0.37
		c43.29-14.46,80.66-30.57,111.92-48.25l64.84,37.44C803.71,270.53,811.66,284.31,811.66,299.22z"/>
</g>
</svg>
