<?xml version="1.0" encoding="utf-8"?>
<!-- Generator: Adobe Illustrator 26.0.1, SVG Export Plug-In . SVG Version: 6.00 Build 0)  -->
<svg version="1.1" id="Layer_1" xmlns="http://www.w3.org/2000/svg" xmlns:xlink="http://www.w3.org/1999/xlink" x="0px" y="0px"
	 viewBox="0 0 1000 1000" style="enable-background:new 0 0 1000 1000;" xml:space="preserve">
<style type="text/css">
	.st0{fill:#E95E28;}
	.st1{fill:#252422;}
</style>
<path class="st0" d="M614.4,244C886.7,152.7,847,28.3,833.7,0c8,20.6,12,92.6-262.2,171.9c-296.4,85.7-223.5,274-208.4,306.5
	c-222.7,192.4,79,524,79,524S252.3,542.5,584.5,491.9l30.2-119.4c-61,12.2-111.8,27.9-153.9,46.3C451.9,287.1,614.4,244,614.4,244z"
	/>
<path class="st1" d="M566.2,153.3C450,186.9,374.6,240,342.3,311.3c-30.4,66.8-13.9,131-2.2,162c-47.7,45.3-73.8,100.7-77.7,165
	c-2.2,37.2,3.1,74.7,13.2,110.8l-122.2-70.5c-13.6-7.8-21.9-22.3-21.9-38V288.9c0-15.7,8.4-30.2,21.9-38L457.9,75.1
	c13.6-7.8,30.3-7.8,43.9,0l110.9,64C598.2,143.8,582.7,148.6,566.2,153.3z"/>
<path class="st1" d="M828.2,288.9v351.7c0,15.7-8.4,30.2-21.9,38L501.8,854.4c-13.6,7.8-30.3,7.8-43.9,0l-43-24.8
	c-12-75.1-13.1-161.4,23.2-225.6c28.8-51,79-82.3,149.3-93c7.7-1.2,13.9-6.9,15.8-14.3l30.2-119.4c1.6-6.4-0.1-13.2-4.7-18
	c-3.7-3.9-8.7-6-14-6c-1.3,0-2.5,0.1-3.8,0.3c-47.9,9.6-91.4,21.7-129.7,36.1c14.4-92.7,132.6-125.5,138.1-127
	c0.4-0.1,0.8-0.2,1.2-0.4c45.5-15.2,84.8-32.1,117.6-50.7l68.1,39.4C819.8,258.8,828.2,273.2,828.2,288.9z"/>
</svg>
